<?xml version="1.0" encoding="utf-8"?><svg id="Gold-Agency-Partner-Logo" xmlns="http://www.w3.org/2000/svg" width="240" height="86.809" viewBox="0 0 240 86.809">
  <path id="Path_199214" data-name="Path 199214" d="M96.545,77.1a24.545,24.545,0,1,0,24.545,24.545h0A24.575,24.575,0,0,0,96.545,77.1Zm-22.06,24.545a22.074,22.074,0,0,1,1.906-8.987l10.519,28.834A22.033,22.033,0,0,1,74.485,101.645Zm22.06,22.094a22.581,22.581,0,0,1-6.23-.885l6.638-19.234,6.774,18.587a1.379,1.379,0,0,0,.17.306A23.623,23.623,0,0,1,96.545,123.738ZM99.574,91.3c1.328-.068,2.519-.2,2.519-.2a.894.894,0,0,0,.783-1.021.955.955,0,0,0-.953-.817s-3.574.272-5.889.272c-2.179,0-5.821-.272-5.821-.272a.9.9,0,0,0-.136,1.8s1.123.136,2.315.2l3.438,9.43-4.766,14.536L83.03,91.33c1.328-.068,2.519-.2,2.519-.2a.944.944,0,0,0,.817-1.021.955.955,0,0,0-.953-.817s-3.574.272-5.889.272c-.409,0-.919,0-1.43-.034a22.1,22.1,0,0,1,30.57-6.332,21.251,21.251,0,0,1,2.791,2.179c-.1,0-.2-.034-.272-.034a3.829,3.829,0,0,0-3.711,3.915c0,1.8,1.055,3.37,2.179,5.174a11.547,11.547,0,0,1,1.8,6.094,20.343,20.343,0,0,1-1.668,7.149l-2.213,7.353Zm8.068,29.447,6.74-19.506a20.67,20.67,0,0,0,1.668-7.9,17.088,17.088,0,0,0-.136-2.281,22.109,22.109,0,0,1-8.272,29.685Z" transform="translate(-55.217 -58.513)" fill="#151e25"/>
  <path id="Path_199215" data-name="Path 199215" d="M243.694,119.6l-4.97,14.638a23.219,23.219,0,0,0-1.089,5.072H237.5a28.644,28.644,0,0,0-1.089-5.072l-4.97-14.638H224.8l9.4,24.681H240.9l9.4-24.681Z" transform="translate(-156 -86.545)" fill="#151e25"/>
  <path id="Path_199216" data-name="Path 199216" d="M305.872,119.5,304,124.436v19.745h6.638V119.5Z" transform="translate(-208.238 -86.479)" fill="#151e25"/>
  <path id="Path_199217" data-name="Path 199217" d="M353.355,121.57a7.979,7.979,0,0,0-6.843-3.37,7.44,7.44,0,0,0-6.774,3.677h-.306l-.953-3.2H333.1v35.881h6.638V144.208c0-.34-.1-1.532-.34-3.574h.34a7.718,7.718,0,0,0,6.6,3.166,8.314,8.314,0,0,0,5.038-1.532,9.708,9.708,0,0,0,3.3-4.426,18.156,18.156,0,0,0,1.157-6.877C355.84,126.949,355.023,123.817,353.355,121.57Zm-8.681,16.749a4.209,4.209,0,0,1-3.745-1.736c-.783-1.157-1.191-3.03-1.191-5.685v-.715a9.012,9.012,0,0,1,1.191-5.072,4.228,4.228,0,0,1,3.643-1.532,3.8,3.8,0,0,1,3.506,1.838A10.629,10.629,0,0,1,349.2,130.9C349.2,135.834,347.7,138.319,344.674,138.319Z" transform="translate(-227.432 -85.621)" fill="#151e25"/>
  <path id="Path_199218" data-name="Path 199218" d="M452.011,80.614h4.051v5.719a9.123,9.123,0,0,1-1.906.443,15.606,15.606,0,0,1-2.179.136,6.063,6.063,0,0,1-3.064-.715,4.44,4.44,0,0,1-1.872-2.077,7.381,7.381,0,0,1-.647-3.2,6.444,6.444,0,0,1,.715-3.166,5.167,5.167,0,0,1,2.077-2.111,6.871,6.871,0,0,1,3.268-.749,11.6,11.6,0,0,1,1.872.17,7.538,7.538,0,0,1,1.634.511l-.545,1.294a9.628,9.628,0,0,0-1.4-.477,6.249,6.249,0,0,0-1.6-.2,4.209,4.209,0,0,0-3.268,1.26,4.835,4.835,0,0,0-1.157,3.438,6.653,6.653,0,0,0,.443,2.451,3.7,3.7,0,0,0,1.4,1.668,4.69,4.69,0,0,0,2.519.613c.442,0,.885-.034,1.294-.068a5.092,5.092,0,0,0,.987-.2V81.907h-2.553Z" transform="translate(-302.156 -57.056)" fill="#c19a67"/>
  <path id="Path_199219" data-name="Path 199219" d="M496.85,80.985a7.2,7.2,0,0,1-.613,3.166,4.934,4.934,0,0,1-1.8,2.111,5.566,5.566,0,0,1-2.962.749,5.888,5.888,0,0,1-3.03-.749,4.289,4.289,0,0,1-1.77-2.111,7.8,7.8,0,0,1-.579-3.166,7.638,7.638,0,0,1,.579-3.132,4.856,4.856,0,0,1,1.77-2.111,5.689,5.689,0,0,1,3.064-.749,5.527,5.527,0,0,1,2.928.749,4.744,4.744,0,0,1,1.8,2.111A7.057,7.057,0,0,1,496.85,80.985Zm-9.226,0a5.836,5.836,0,0,0,.919,3.472,3.34,3.34,0,0,0,2.894,1.26,3.3,3.3,0,0,0,2.894-1.26,7.018,7.018,0,0,0,0-6.945,3.275,3.275,0,0,0-2.86-1.26,3.365,3.365,0,0,0-2.928,1.26A6.369,6.369,0,0,0,487.625,80.985Z" transform="translate(-328.34 -57.122)" fill="#c19a67"/>
  <path id="Path_199220" data-name="Path 199220" d="M530.1,87.177V75.5h1.464V85.883h5.106v1.294Z" transform="translate(-357.368 -57.457)" fill="#c19a67"/>
  <path id="Path_199221" data-name="Path 199221" d="M569.362,81.213a5.846,5.846,0,0,1-1.6,4.46,6.336,6.336,0,0,1-4.494,1.5H560V75.494h3.609a6.8,6.8,0,0,1,3.064.647,4.6,4.6,0,0,1,2.009,1.94A6.673,6.673,0,0,1,569.362,81.213Zm-1.566.068a4.383,4.383,0,0,0-1.157-3.4,4.675,4.675,0,0,0-3.268-1.089h-1.906v9.123h1.6C566.23,85.911,567.8,84.379,567.8,81.281Z" transform="translate(-377.09 -57.451)" fill="#c19a67"/>
  <path id="Path_199222" data-name="Path 199222" d="M452.219,144.711l-1.4-3.609h-4.63l-1.4,3.609h-1.5L447.862,133h1.328l4.528,11.711Zm-1.838-4.9-1.294-3.54a3.166,3.166,0,0,1-.17-.477l-.2-.715c-.068-.238-.136-.443-.17-.545a8.371,8.371,0,0,1-.272.987c-.1.306-.17.579-.238.749l-1.328,3.54Z" transform="translate(-300.117 -95.383)" fill="#c19a67"/>
  <path id="Path_199223" data-name="Path 199223" d="M486.511,138.346h4.051v5.719a12.014,12.014,0,0,1-1.906.477,15.6,15.6,0,0,1-2.179.136,6.063,6.063,0,0,1-3.064-.715,4.44,4.44,0,0,1-1.872-2.077,7.38,7.38,0,0,1-.647-3.2,6.443,6.443,0,0,1,.715-3.166,4.89,4.89,0,0,1,2.077-2.077,6.871,6.871,0,0,1,3.268-.749,11.6,11.6,0,0,1,1.872.17,7.541,7.541,0,0,1,1.634.511l-.545,1.294a9.629,9.629,0,0,0-1.4-.477,6.248,6.248,0,0,0-1.6-.2,4.209,4.209,0,0,0-3.268,1.26,4.835,4.835,0,0,0-1.157,3.438,6.65,6.65,0,0,0,.443,2.451,3.7,3.7,0,0,0,1.4,1.668,4.69,4.69,0,0,0,2.519.613c.443,0,.885-.034,1.294-.068a5.092,5.092,0,0,0,.987-.2v-3.472h-2.553Z" transform="translate(-324.911 -95.18)" fill="#c19a67"/>
  <path id="Path_199224" data-name="Path 199224" d="M528.836,144.777H522.3V133.1h6.536v1.294H523.8v3.643h4.766v1.294H523.8v4.153h5.038Z" transform="translate(-352.224 -95.449)" fill="#c19a67"/>
  <path id="Path_199225" data-name="Path 199225" d="M563.06,144.711h-1.7l-6.23-9.7h-.068c.034.374.034.851.068,1.43s.034,1.157.034,1.736v6.5H553.8V133h1.7l6.23,9.668h.068c0-.17-.034-.443-.034-.783s-.034-.715-.034-1.123-.034-.783-.034-1.157v-6.57h1.362Z" transform="translate(-373 -95.383)" fill="#c19a67"/>
  <path id="Path_199226" data-name="Path 199226" d="M598.911,133.821a3.665,3.665,0,0,0-2.962,1.26,5.139,5.139,0,0,0-1.089,3.438,5.243,5.243,0,0,0,1.021,3.438,3.652,3.652,0,0,0,3.03,1.26,6.783,6.783,0,0,0,1.43-.136c.443-.1.919-.2,1.362-.34v1.294a6.135,6.135,0,0,1-1.362.34,8.963,8.963,0,0,1-1.668.1,5.273,5.273,0,0,1-2.962-.749,4.845,4.845,0,0,1-1.8-2.077,8.625,8.625,0,0,1-.613-3.2,6.844,6.844,0,0,1,.647-3.1,4.762,4.762,0,0,1,1.906-2.111,5.689,5.689,0,0,1,3.064-.749,7.089,7.089,0,0,1,3.234.681l-.579,1.226a8.62,8.62,0,0,0-1.226-.409A6.834,6.834,0,0,0,598.911,133.821Z" transform="translate(-399.047 -95.047)" fill="#c19a67"/>
  <path id="Path_199227" data-name="Path 199227" d="M630.2,138.853l3.03-5.753h1.6l-3.881,7.149v4.528h-1.464v-4.46L625.6,133.1h1.6Z" transform="translate(-420.358 -95.449)" fill="#c19a67"/>
  <path id="Path_199228" data-name="Path 199228" d="M451.164,190.7a5.214,5.214,0,0,1,3.336.885,3.225,3.225,0,0,1,1.055,2.519,3.724,3.724,0,0,1-.443,1.8,3.145,3.145,0,0,1-1.464,1.362,5.94,5.94,0,0,1-2.757.511h-1.328v4.6H448.1V190.7Zm-.136,1.26h-1.5v4.63h1.191a4.411,4.411,0,0,0,2.485-.545,2.031,2.031,0,0,0,.817-1.838,2.055,2.055,0,0,0-.715-1.668,3.739,3.739,0,0,0-2.281-.579Z" transform="translate(-303.283 -133.441)" fill="#c19a67"/>
  <path id="Path_199229" data-name="Path 199229" d="M483.719,202.311l-1.4-3.609h-4.63l-1.4,3.609h-1.5l4.562-11.711h1.328l4.528,11.711Zm-1.838-4.9-1.294-3.54a3.18,3.18,0,0,1-.17-.477,5.627,5.627,0,0,1-.2-.715,2.607,2.607,0,0,0-.17-.545,8.363,8.363,0,0,1-.272.987c-.1.306-.17.579-.238.749l-1.328,3.54Z" transform="translate(-320.894 -133.375)" fill="#c19a67"/>
  <path id="Path_199230" data-name="Path 199230" d="M518.2,190.7a5.079,5.079,0,0,1,3.2.817A3.02,3.02,0,0,1,522.421,194a3.184,3.184,0,0,1-.34,1.566,2.484,2.484,0,0,1-.885.987,4.388,4.388,0,0,1-1.123.579l3.234,5.243h-1.7l-2.826-4.834h-2.315v4.834H515V190.7Zm-.068,1.294h-1.668v4.323H518.2a3.159,3.159,0,0,0,2.077-.545,2.156,2.156,0,0,0,.647-1.668,1.94,1.94,0,0,0-.681-1.634A3.522,3.522,0,0,0,518.132,191.994Z" transform="translate(-347.409 -133.441)" fill="#c19a67"/>
  <path id="Path_199231" data-name="Path 199231" d="M550.606,202.377h-1.464V191.994H545.5V190.7h8.749v1.294h-3.643Z" transform="translate(-367.526 -133.441)" fill="#c19a67"/>
  <path id="Path_199232" data-name="Path 199232" d="M590.425,202.377h-1.7l-6.23-9.7h-.068c.034.374.034.851.068,1.43s.068,1.157.068,1.736v6.536H581.2V190.7h1.7l6.23,9.668h.068c0-.17-.034-.443-.034-.783s-.034-.715-.034-1.123-.034-.783-.034-1.157v-6.57h1.362Z" transform="translate(-391.073 -133.441)" fill="#c19a67"/>
  <path id="Path_199233" data-name="Path 199233" d="M628.836,202.377H622.3V190.7h6.536v1.294H623.8v3.643h4.766v1.294H623.8v4.153h5.038Z" transform="translate(-418.181 -133.441)" fill="#c19a67"/>
  <path id="Path_199234" data-name="Path 199234" d="M657.034,190.7a5.079,5.079,0,0,1,3.2.817A3.021,3.021,0,0,1,661.255,194a3.181,3.181,0,0,1-.34,1.566,2.483,2.483,0,0,1-.885.987,4.386,4.386,0,0,1-1.123.579l3.2,5.243h-1.7l-2.825-4.834h-2.315v4.834H653.8V190.7Zm-.068,1.294H655.3v4.323h1.736a3.159,3.159,0,0,0,2.077-.545,2.156,2.156,0,0,0,.647-1.668,1.94,1.94,0,0,0-.681-1.634A3.522,3.522,0,0,0,656.966,191.994Z" transform="translate(-438.958 -133.441)" fill="#c19a67"/>
  <g id="Group_51338" data-name="Group 51338" transform="translate(0 0)">
    <path id="Path_199235" data-name="Path 199235" d="M262.7,109.308H22.7V22.5h240Zm-238.3-1.7H261V24.2H24.4v83.4Z" transform="translate(-22.7 -22.5)" fill="#c19a67"/>
  </g>
</svg>
